<svg width="1200" height="675" viewBox="0 0 1200 675" fill="none" xmlns="http://www.w3.org/2000/svg" role="img" aria-labelledby="title desc">
  <title id="title">Inkframe default post thumbnail</title>
  <desc id="desc">Default thumbnail used when a post does not define a teaser or inline image.</desc>
  <rect width="1200" height="675" fill="#171A20"/>
  <rect x="72" y="72" width="1056" height="531" rx="28" fill="#20242C"/>
  <rect x="120" y="120" width="420" height="435" rx="22" fill="#2D3440"/>
  <rect x="612" y="178" width="360" height="26" rx="13" fill="#F8F4ED" fill-opacity="0.92"/>
  <rect x="612" y="232" width="280" height="18" rx="9" fill="#9A948B"/>
  <rect x="612" y="286" width="428" height="18" rx="9" fill="#B6B1A9" fill-opacity="0.9"/>
  <rect x="612" y="326" width="396" height="18" rx="9" fill="#B6B1A9" fill-opacity="0.72"/>
  <rect x="612" y="366" width="332" height="18" rx="9" fill="#B6B1A9" fill-opacity="0.52"/>
  <rect x="612" y="468" width="150" height="42" rx="21" fill="#3A414B"/>
  <path d="M265 270C265 231.34 296.34 200 335 200H355C393.66 200 425 231.34 425 270V285C425 323.66 393.66 355 355 355H335C296.34 355 265 323.66 265 285V270Z" fill="#F59E0B"/>
  <rect x="247" y="392" width="196" height="22" rx="11" fill="#F8F4ED"/>
  <rect x="289" y="432" width="112" height="18" rx="9" fill="#D9D3CB"/>
</svg>
